<svg width="26" height="27" viewBox="0 0 26 27" fill="none" xmlns="http://www.w3.org/2000/svg">
<path d="M16 11.5V19.5M10 11.5V19.5M23.9995 5.5L1.99951 5.50001M22 5.5V24.5C22 24.7652 21.8946 25.0196 21.7071 25.2071C21.5196 25.3946 21.2652 25.5 21 25.5H5C4.73478 25.5 4.48043 25.3946 4.29289 25.2071C4.10536 25.0196 4 24.7652 4 24.5V5.5M18 5.5V3.5C18 2.96957 17.7893 2.46086 17.4142 2.08579C17.0391 1.71071 16.5304 1.5 16 1.5H10C9.46957 1.5 8.96086 1.71071 8.58579 2.08579C8.21071 2.46086 8 2.96957 8 3.5V5.5" stroke="#E92215" stroke-width="2.5" stroke-linecap="round" stroke-linejoin="round"/>
</svg>
