<svg width="28" height="27" viewBox="0 0 28 27" fill="none" xmlns="http://www.w3.org/2000/svg">
<path d="M1.87354 24.9988C3.10299 22.8708 4.8708 21.1037 6.99939 19.8752C9.12798 18.6467 11.5424 18 14.0001 18C16.4577 18 18.8721 18.6468 21.0007 19.8754C23.1292 21.1039 24.897 22.871 26.1264 24.9991M19.9999 5.00001H25.9999M22.9999 2.00001V8.00001M21.5063 12.7728C20.9716 14.2167 20.0313 15.4754 18.7985 16.3979C17.5657 17.3203 16.0928 17.8672 14.5568 17.9728C13.0207 18.0784 11.4868 17.7383 10.1394 16.9933C8.7919 16.2483 7.68821 15.1301 6.96086 13.773C6.23351 12.416 5.91345 10.8778 6.03912 9.3432C6.16479 7.80864 6.73084 6.34301 7.66928 5.12236C8.60773 3.90172 9.87864 2.97798 11.3293 2.46212C12.78 1.94627 14.3488 1.86023 15.8473 2.21436" stroke="#5E718D" stroke-width="2.5" stroke-linecap="round" stroke-linejoin="round"/>
</svg>
