<svg width="21" height="21" viewBox="0 0 16 17" fill="none" xmlns="http://www.w3.org/2000/svg">
<path d="M9.87482 7.125V12.125M6.12482 7.125V12.125M14.8745 3.375L1.12451 3.37501M13.6248 3.375V15.25C13.6248 15.4158 13.559 15.5747 13.4418 15.6919C13.3245 15.8092 13.1656 15.875 12.9998 15.875H2.99982C2.83406 15.875 2.67509 15.8092 2.55788 15.6919C2.44067 15.5747 2.37482 15.4158 2.37482 15.25V3.375M11.1248 3.375V2.125C11.1248 1.79348 10.9931 1.47554 10.7587 1.24112C10.5243 1.0067 10.2063 0.875 9.87482 0.875H6.12482C5.7933 0.875 5.47535 1.0067 5.24093 1.24112C5.00651 1.47554 4.87482 1.79348 4.87482 2.125V3.375" stroke="#5E718D" stroke-linecap="round" stroke-linejoin="round"/>
</svg>
