<svg width="31" height="25" viewBox="0 0 31 25" fill="none" xmlns="http://www.w3.org/2000/svg">
<path d="M0 22.7652C0 23.8691 0.753715 24.2999 1.57722 24.2999C2.05178 24.2999 2.45655 24.0307 2.98694 23.7211C4.52229 22.7114 6.42053 22.0921 8.36065 22.1055C10.3706 22.119 12.3665 22.8325 13.9298 24.2865C14.5439 24.825 14.9905 25 15.507 25C16.0095 25 16.4701 24.825 17.0702 24.2865C18.6335 22.846 20.6294 22.119 22.6533 22.1055C24.5934 22.0921 26.4777 22.7114 28.0131 23.7211C28.5434 24.0307 28.9482 24.2999 29.4367 24.2999C30.2463 24.2999 31 23.8691 31 22.7652V4.4965C31 4.26764 30.986 4.07916 30.8325 3.8503C29.5903 1.7636 26.4358 0 22.5975 0C19.5547 0 16.9167 1.17124 15.507 2.82714C14.0973 1.17124 11.4453 0 8.41648 0C4.56416 0 1.40973 1.7636 0.167492 3.8503C0.0279153 4.07916 0 4.26764 0 4.4965V22.7652ZM2.24719 21.6209V4.80614C3.37776 3.23102 5.83431 2.16747 8.41648 2.16747C11.0684 2.16747 13.3854 3.24448 14.3764 4.88691V21.8498C12.9527 20.7593 10.7335 19.9381 8.41648 19.9381C5.98784 19.9381 3.7267 20.5977 2.24719 21.6209ZM16.6236 21.8498V4.88691C17.6146 3.24448 19.9455 2.16747 22.5975 2.16747C25.1657 2.16747 27.6222 3.23102 28.7528 4.80614V21.6209C27.2733 20.5977 25.0122 19.9381 22.5975 19.9381C20.2665 19.9381 18.0473 20.7593 16.6236 21.8498Z" fill="#80858A"/>
</svg>
