<svg width="18" height="19" viewBox="0 0 18 19" fill="none" xmlns="http://www.w3.org/2000/svg">
<path d="M10.864 8.08333V13.75M6.63671 8.08333V13.75M16.5 3.83333L1 3.83334M15.0913 3.83333V17.2917C15.0913 17.4795 15.017 17.6597 14.8849 17.7925C14.7528 17.9254 14.5736 18 14.3867 18H3.11398C2.92712 18 2.74792 17.9254 2.61579 17.7925C2.48366 17.6597 2.40944 17.4795 2.40944 17.2917V3.83333M12.2731 3.83333V2.41667C12.2731 2.04094 12.1246 1.68061 11.8604 1.41493C11.5961 1.14926 11.2377 1 10.864 1H6.63671C6.26299 1 5.90459 1.14926 5.64033 1.41493C5.37607 1.68061 5.22762 2.04094 5.22762 2.41667V3.83333" stroke="white" stroke-width="1.5" stroke-linecap="round" stroke-linejoin="round"/>
</svg>
