<svg width="24" height="24" viewBox="0 0 24 24" fill="none" xmlns="http://www.w3.org/2000/svg">
<path d="M14.3664 4.70984C13.9677 4.82217 13.7356 5.23644 13.8479 5.63513C13.9602 6.03382 14.3745 6.26596 14.7732 6.15363L14.3664 4.70984ZM15.8926 15.0001L15.892 14.2501C15.4779 14.2504 15.1424 14.5863 15.1426 15.0005C15.1427 15.4146 15.4785 15.7502 15.8927 15.7501L15.8926 15.0001ZM22.0288 18.9365C22.2668 19.2755 22.7345 19.3574 23.0735 19.1194C23.4126 18.8814 23.4944 18.4136 23.2564 18.0746L22.0288 18.9365ZM0.885961 18.0747C0.647738 18.4136 0.729316 18.8814 1.06817 19.1196C1.40703 19.3579 1.87484 19.2763 2.11306 18.9374L0.885961 18.0747ZM14.3864 18.937C14.6247 19.2758 15.0925 19.3573 15.4313 19.1191C15.7702 18.8808 15.8517 18.413 15.6135 18.0742L14.3864 18.937ZM12.3749 10.1251C12.3749 12.4033 10.5281 14.2501 8.24991 14.2501V15.7501C11.3565 15.7501 13.8749 13.2317 13.8749 10.1251H12.3749ZM8.24991 14.2501C5.97173 14.2501 4.12491 12.4033 4.12491 10.1251H2.62491C2.62491 13.2317 5.1433 15.7501 8.24991 15.7501V14.2501ZM4.12491 10.1251C4.12491 7.84696 5.97173 6.00014 8.24991 6.00014V4.50014C5.1433 4.50014 2.62491 7.01854 2.62491 10.1251H4.12491ZM8.24991 6.00014C10.5281 6.00014 12.3749 7.84696 12.3749 10.1251H13.8749C13.8749 7.01854 11.3565 4.50014 8.24991 4.50014V6.00014ZM14.7732 6.15363C15.3406 5.99377 15.9356 5.95735 16.5182 6.04683L16.7459 4.56421C15.9515 4.4422 15.1401 4.49186 14.3664 4.70984L14.7732 6.15363ZM16.5182 6.04683C17.1009 6.13631 17.6576 6.3496 18.1508 6.67234L18.9721 5.41715C18.2995 4.97706 17.5404 4.68622 16.7459 4.56421L16.5182 6.04683ZM18.1508 6.67234C18.6441 6.99508 19.0625 7.41978 19.3778 7.91783L20.6451 7.11548C20.2152 6.43635 19.6447 5.85724 18.9721 5.41715L18.1508 6.67234ZM19.3778 7.91783C19.6931 8.41588 19.898 8.97571 19.9787 9.55962L21.4646 9.35421C21.3545 8.55799 21.0751 7.79462 20.6451 7.11548L19.3778 7.91783ZM19.9787 9.55962C20.0594 10.1435 20.0141 10.738 19.8457 11.3029L21.2832 11.7313C21.5128 10.961 21.5746 10.1504 21.4646 9.35421L19.9787 9.55962ZM19.8457 11.3029C19.6774 11.8678 19.3899 12.3901 19.0027 12.8345L20.1337 13.8198C20.6617 13.2138 21.0537 12.5016 21.2832 11.7313L19.8457 11.3029ZM19.0027 12.8345C18.6155 13.279 18.1376 13.6353 17.6011 13.8795L18.2224 15.2447C18.954 14.9118 19.6057 14.4259 20.1337 13.8198L19.0027 12.8345ZM17.6011 13.8795C17.0646 14.1237 16.4819 14.2501 15.8925 14.2501L15.8927 15.7501C16.6964 15.75 17.4909 15.5777 18.2224 15.2447L17.6011 13.8795ZM15.8931 15.7501C17.0966 15.7493 18.2825 16.0384 19.3506 16.593L20.0419 15.2619C18.76 14.5961 17.3365 14.2491 15.892 14.2501L15.8931 15.7501ZM19.3506 16.593C20.4186 17.1477 21.3373 17.9515 22.0288 18.9365L23.2564 18.0746C22.4264 16.8924 21.3238 15.9276 20.0419 15.2619L19.3506 16.593ZM2.11306 18.9374C2.80524 17.9529 3.72414 17.1493 4.79219 16.5945L4.1008 15.2634C2.81918 15.929 1.71654 16.8933 0.885961 18.0747L2.11306 18.9374ZM4.79219 16.5945C5.86022 16.0398 7.04638 15.7502 8.24993 15.7501L8.24988 14.2501C6.80573 14.2502 5.38244 14.5977 4.1008 15.2634L4.79219 16.5945ZM8.24993 15.7501C9.45343 15.7501 10.639 16.0396 11.7071 16.5943L12.3984 15.2631C11.1168 14.5975 9.69408 14.2501 8.24988 14.2501L8.24993 15.7501ZM11.7071 16.5943C12.7752 17.1489 13.6942 17.9524 14.3864 18.937L15.6135 18.0742C14.7828 16.8928 13.6801 15.9286 12.3984 15.2631L11.7071 16.5943Z" fill="#00008B"/>
</svg>
